# File created by Blade
# Date/Time:  Tue Jan 27 17:27:44 2015
#---------------------------------------------------------
:version 1.10
:name HOM
:units
  mass 1.0
  length 1.000000
  angle deg
:documentation
     Acclaim Skeleton File
:root
   axis xyz
   order TX TY TZ RX RY RZ
   position 0.000000 0.000000 0.000000
   orientation 0 0 0
:bonedata
   begin
      id 1
      name Spine_dum
      direction 0.000000 1.000000 0.000000
      length 7.539951
      axis 0.0 0.0 0.0 xyz
   end
   begin
      id 2
      name LeftUpLeg_dum
      direction 1.000000 0.000000 0.000000
      length 3.345476
      axis 0.0 0.0 0.0 xyz
   end
   begin
      id 3
      name RightUpLeg_dum
      direction -1.000000 0.000000 0.000000
      length 3.345476
      axis 0.0 0.0 0.0 xyz
   end
   begin
      id 4
      name Spine
      direction 0.000000 1.000000 0.000000
      length 0.000000
      axis 0.0 0.0 0.0 xyz
      dof rx ry rz
   end
   begin
      id 5
      name Spine_dum1
      direction 0.000000 1.000000 0.000000
      length 15.093809
      axis 0.0 0.0 0.0 xyz
   end
   begin
      id 6
      name Spine_dum2
      direction 0.000000 1.000000 0.000000
      length 9.738928
      axis 0.0 0.0 0.0 xyz
   end
   begin
      id 7
      name Spine_dum3
      direction 0.000000 1.000000 0.000000
      length 9.738928
      axis 0.0 0.0 0.0 xyz
   end
   begin
      id 8
      name Head
      direction 0.000000 1.000000 0.000000
      length 4.527550
      axis 0.0 0.0 0.0 xyz
      dof rx ry rz
   end
   begin
      id 9
      name LeftShoulder
      direction 1.000000 0.000000 0.000000
      length 7.084015
      axis 0.0 0.0 -90.0 xyz
      dof rx ry rz
   end
   begin
      id 10
      name LeftArm
      direction 1.000000 0.000000 0.000000
      length 10.259319
      axis 0.0 0.0 -90.0 xyz
      dof rx ry rz
   end
   begin
      id 11
      name LeftForeArm
      direction 1.000000 0.000000 0.000000
      length 9.896984
      axis 0.0 0.0 -90.0 xyz
      dof ry rz rx
   end
   begin
      id 12
      name LeftHand
      direction 0.000000 0.000000 0.000000
      length 0.000000
      axis 0.0 0.0 -90.0 xyz
      dof rx ry rz
   end
   begin
      id 13
      name LeftHand_dum1
      direction 0.000000 0.000000 0.000000
      length 0.000000
      axis 0.0 0.0 -90.0 xyz
   end
   begin
      id 14
      name LeftHand_dum2
      direction 1.000000 0.000000 0.000000
      length 3.937000
      axis 0.0 0.0 -90.0 xyz
   end
   begin
      id 15
      name LeftHandThumb1
      direction 0.000000 0.000000 1.000000
      length 3.937000
      axis 0.0 0.0 -90.0 xyz
      dof rx rz ry
   end
   begin
      id 16
      name RightShoulder
      direction -1.000000 0.000000 0.000000
      length 7.084015
      axis 0.0 0.0 90.0 xyz
      dof rx ry rz
   end
   begin
      id 17
      name RightArm
      direction -1.000000 0.000000 0.000000
      length 10.259319
      axis 0.0 0.0 90.0 xyz
      dof rx ry rz
   end
   begin
      id 18
      name RightForeArm
      direction -1.000000 0.000000 0.000000
      length 9.896984
      axis 0.0 0.0 90.0 xyz
      dof ry rz rx
   end
   begin
      id 19
      name RightHand
      direction 0.000000 0.000000 0.000000
      length 0.000000
      axis 0.0 0.0 90.0 xyz
      dof rx ry rz
   end
   begin
      id 20
      name RightHand_dum1
      direction 0.000000 0.000000 0.000000
      length 0.000000
      axis 0.0 0.0 90.0 xyz
   end
   begin
      id 21
      name RightHand_dum2
      direction -1.000000 0.000000 0.000000
      length 3.937000
      axis 0.0 0.0 90.0 xyz
   end
   begin
      id 22
      name RightHandThumb1
      direction 0.000000 0.000000 1.000000
      length 3.937000
      axis 0.0 0.0 90.0 xyz
      dof rx rz ry
   end
   begin
      id 23
      name LeftUpLeg
      direction 0.000000 -1.000000 0.000000
      length 19.114733
      axis 0.0 0.0 0.0 xyz
      dof rx ry rz
   end
   begin
      id 24
      name LeftLeg
      direction 0.000000 -1.000000 0.000000
      length 16.045604
      axis 0.0 0.0 0.0 xyz
      dof rx ry rz
   end
   begin
      id 25
      name LeftFoot
      direction 0.000000 -0.258819 0.965926
      length 5.543155
      axis 15.0 0.0 0.0 xyz
      dof rx ry rz
   end
   begin
      id 26
      name LeftToeBase
      direction 0.000000 0.000000 1.000000
      length 2.952750
      axis 0.0 0.0 0.0 xyz
      dof rx ry rz
   end
   begin
      id 27
      name RightUpLeg
      direction 0.000000 -1.000000 0.000000
      length 19.114733
      axis 0.0 0.0 0.0 xyz
      dof rx ry rz
   end
   begin
      id 28
      name RightLeg
      direction 0.000000 -1.000000 0.000000
      length 16.045604
      axis 0.0 0.0 0.0 xyz
      dof rx ry rz
   end
   begin
      id 29
      name RightFoot
      direction 0.000000 -0.258819 0.965926
      length 5.543155
      axis 15.0 0.0 0.0 xyz
      dof rx ry rz
   end
   begin
      id 30
      name RightToeBase
      direction 0.000000 0.000000 1.000000
      length 2.952750
      axis 0.0 0.0 0.0 xyz
      dof rx ry rz
   end
:hierarchy
   begin
      root Spine_dum LeftUpLeg_dum RightUpLeg_dum
      Spine_dum Spine
      LeftUpLeg_dum LeftUpLeg
      RightUpLeg_dum RightUpLeg
      Spine Spine_dum1 Spine_dum2 Spine_dum3
      Spine_dum1 Head
      Spine_dum2 LeftShoulder
      Spine_dum3 RightShoulder
      LeftShoulder LeftArm
      LeftArm LeftForeArm
      LeftForeArm LeftHand
      LeftHand LeftHand_dum1 LeftHand_dum2
      LeftHand_dum1 LeftHandThumb1
      RightShoulder RightArm
      RightArm RightForeArm
      RightForeArm RightHand
      RightHand RightHand_dum1 RightHand_dum2
      RightHand_dum1 RightHandThumb1
      LeftUpLeg LeftLeg
      LeftLeg LeftFoot
      LeftFoot LeftToeBase
      RightUpLeg RightLeg
      RightLeg RightFoot
      RightFoot RightToeBase
   end

# File created by Blade
# Date/Time:  Tue Jan 27 17:27:32 2015
# Frame Rate: 120.000 fps
#------------------------------------------------------
:FULLY-SPECIFIED
:DEGREES
286
root 4.547175 36.625461 0.920641 -0.169550 0.375877 1.164427
Spine 4.426763 9.209713 -7.638801
Head 10.629527 -6.341314 6.446329
LeftShoulder -7.484177 -8.538541 10.378672
LeftArm -11.056602 -31.644859 -39.062873
LeftForeArm 2.868182 -0.000000 97.473441
LeftHand -17.328037 -0.000000 27.001737
LeftHandThumb1 -26.253704 0.000000 33.147579
RightShoulder -10.545335 -19.231643 2.324999
RightArm 22.102005 -27.285393 58.687564
RightForeArm 176.510919 -0.000000 34.223752
RightHand 1.792289 -0.000000 -0.974643
RightHandThumb1 -24.326973 -0.000000 -32.862282
LeftUpLeg 0.093596 4.019593 -5.737409
LeftLeg 9.260352 -0.000000 -0.000000
LeftFoot -19.405330 4.519152 -13.366954
LeftToeBase 14.890735 -0.000000 -0.000000
RightUpLeg -15.607795 -10.910675 -7.913403
RightLeg 76.632045 -0.000000 -0.000000
RightFoot -5.219856 -3.937095 10.643719
RightToeBase 1.030221 -0.000000 -0.000000
287
root 4.543821 36.625716 0.914754 -0.166246 0.358923 1.167385
Spine 4.412223 9.235602 -7.646994
Head 10.573329 -6.316374 6.502147
LeftShoulder -7.479305 -8.537532 10.372312
LeftArm -11.093550 -31.663016 -39.005993
LeftForeArm 2.833588 0.000000 97.458819
LeftHand -17.339218 0.000000 26.983871
LeftHandThumb1 -26.253704 0.000000 33.147579
RightShoulder -10.536139 -19.221110 2.327432
RightArm 22.110679 -27.261749 58.672499
RightForeArm 176.484020 -0.000000 34.276108
RightHand 1.774930 -0.000000 -1.012887
RightHandThumb1 -24.326973 -0.000000 -32.862282
LeftUpLeg 0.095467 4.017428 -5.735924
LeftLeg 9.229088 -0.000000 -0.000000
LeftFoot -19.384758 4.528733 -13.378680
LeftToeBase 14.862364 -0.000000 -0.000000
RightUpLeg -15.574131 -10.919703 -7.937201
RightLeg 76.615448 -0.000000 -0.000000
RightFoot -5.204199 -3.966100 10.648553
RightToeBase 0.912487 -0.000000 -0.000000
288
root 4.541320 36.627199 0.908794 -0.164738 0.331959 1.167541
Spine 4.403439 9.269690 -7.647120
Head 10.519031 -6.318198 6.466072
LeftShoulder -7.464100 -8.537644 10.347758
LeftArm -11.145490 -31.665225 -38.906697
LeftForeArm 2.760949 -0.000000 97.446311
LeftHand -17.385581 -0.000000 27.012152
LeftHandThumb1 -26.253704 0.000000 33.147579
RightShoulder -10.527816 -19.210188 2.328114
RightArm 22.135373 -27.258492 58.643563
RightForeArm 176.501573 -0.000000 34.323556
RightHand 1.794921 -0.000000 -1.001692
RightHandThumb1 -24.326973 -0.000000 -32.862282
LeftUpLeg 0.094410 4.030081 -5.732811
LeftLeg 9.208864 -0.000000 -0.000000
LeftFoot -19.362864 4.541657 -13.358772
LeftToeBase 14.829926 -0.000000 -0.000000
RightUpLeg -15.540855 -10.911971 -7.960134
RightLeg 76.586729 -0.000000 -0.000000
RightFoot -5.199740 -3.969402 10.676934
RightToeBase 0.822836 -0.000000 -0.000000
289
root 4.537668 36.627996 0.902833 -0.160924 0.306789 1.162328
Spine 4.388544 9.303136 -7.642086
Head 10.460487 -6.332264 6.451702
LeftShoulder -7.465733 -8.530628 10.350850
LeftArm -11.156288 -31.694700 -38.913895
LeftForeArm 2.750282 0.000000 97.429940
LeftHand -17.351969 -0.000000 26.988327
LeftHandThumb1 -26.253704 0.000000 33.147579
RightShoulder -10.518313 -19.207378 2.328264
RightArm 22.160812 -27.242880 58.625732
RightForeArm 176.482761 0.000000 34.352798
RightHand 1.736561 -0.000000 -0.986307
RightHandThumb1 -24.326973 -0.000000 -32.862282
LeftUpLeg 0.098248 4.016294 -5.724650
LeftLeg 9.172941 -0.000000 -0.000000
LeftFoot -19.351403 4.566432 -13.377971
LeftToeBase 14.816797 -0.000000 -0.000000
RightUpLeg -15.506831 -10.905469 -7.974541
RightLeg 76.552795 -0.000000 -0.000000
RightFoot -5.199202 -3.937565 10.700131
RightToeBase 0.952791 -0.000000 -0.000000
290
root 4.535056 36.628729 0.897039 -0.162373 0.283379 1.154516
Spine 4.382910 9.343562 -7.630305
Head 10.398738 -6.327627 6.446865
LeftShoulder -7.454883 -8.524686 10.344428
LeftArm -11.176232 -31.707029 -38.899213
LeftForeArm 2.764413 -0.000000 97.426549
LeftHand -17.358817 -0.000000 26.971960
LeftHandThumb1 -26.253704 0.000000 33.147579
RightShoulder -10.514146 -19.202169 2.328832
RightArm 22.175886 -27.230864 58.606391
RightForeArm 176.499256 -0.000000 34.397508
RightHand 1.685350 0.000000 -0.940074
RightHandThumb1 -24.326973 -0.000000 -32.862282
LeftUpLeg 0.103746 4.005553 -5.716430
LeftLeg 9.143916 -0.000000 -0.000000
LeftFoot -19.341061 4.608600 -13.364454
LeftToeBase 14.815701 -0.000000 -0.000000
RightUpLeg -15.463177 -10.903563 -7.992664
RightLeg 76.512674 -0.000000 -0.000000
RightFoot -5.172613 -3.973474 10.674182
RightToeBase 0.962270 -0.000000 -0.000000
291
root 4.532399 36.629501 0.890835 -0.161031 0.261390 1.149007
Spine 4.379136 9.368987 -7.621681
Head 10.337296 -6.335066 6.428582
LeftShoulder -7.448744 -8.550499 10.331980
LeftArm -11.229586 -31.711503 -38.840473
LeftForeArm 2.785216 -0.000000 97.420340
LeftHand -17.401872 -0.000000 27.000169
LeftHandThumb1 -26.253704 0.000000 33.147579
RightShoulder -10.502992 -19.200870 2.330421
RightArm 22.198548 -27.197339 58.597437
RightForeArm 176.473823 -0.000000 34.434468
RightHand 1.679400 0.000000 -0.940889
RightHandThumb1 -24.326973 -0.000000 -32.862282
LeftUpLeg 0.107200 3.973877 -5.708301
LeftLeg 9.113884 -0.000000 -0.000000
LeftFoot -19.335970 4.641051 -13.380281
LeftToeBase 14.829936 -0.000000 -0.000000
RightUpLeg -15.418826 -10.902932 -8.013514
RightLeg 76.459510 -0.000000 -0.000000
RightFoot -5.158832 -4.007295 10.634688
RightToeBase 0.950587 -0.000000 -0.000000
292
root 4.529259 36.630330 0.885076 -0.167789 0.233910 1.142366
Spine 4.383777 9.407225 -7.611717
Head 10.279276 -6.327411 6.448255
LeftShoulder -7.427685 -8.576896 10.328125
LeftArm -11.295186 -31.728520 -38.793181
LeftForeArm 2.783853 -0.000000 97.423061
LeftHand -17.431677 -0.000000 26.952352
LeftHandThumb1 -26.253704 0.000000 33.147579
RightShoulder -10.486652 -19.173034 2.321701
RightArm 22.194553 -27.210720 58.598435
RightForeArm 176.568578 -0.000000 34.461114
RightHand 1.640095 -0.000000 -0.815400
RightHandThumb1 -24.326973 -0.000000 -32.862282
LeftUpLeg 0.119217 3.953073 -5.700276
LeftLeg 9.083590 -0.000000 -0.000000
LeftFoot -19.317523 4.695320 -13.349067
LeftToeBase 14.772959 -0.000000 -0.000000
RightUpLeg -15.370662 -10.897594 -8.029640
RightLeg 76.407876 -0.000000 -0.000000
RightFoot -5.198968 -4.000859 10.725708
RightToeBase 0.979800 -0.000000 -0.000000
293
root 4.526661 36.631420 0.879050 -0.183804 0.213539 1.134930
Spine 4.405386 9.430390 -7.595488
Head 10.226880 -6.318122 6.421177
LeftShoulder -7.429859 -8.591604 10.309384
LeftArm -11.324692 -31.744403 -38.750196
LeftForeArm 2.742356 0.000000 97.418467
LeftHand -17.381732 -0.000000 26.883651
LeftHandThumb1 -26.253704 0.000000 33.147579
RightShoulder -10.463197 -19.161563 2.311019
RightArm 22.206656 -27.180621 58.606453
RightForeArm 176.557907 -0.000000 34.490684
RightHand 1.626899 -0.000000 -0.790917
RightHandThumb1 -24.326973 -0.000000 -32.862282
LeftUpLeg 0.140670 3.918172 -5.695078
LeftLeg 9.048812 -0.000000 -0.000000
LeftFoot -19.313289 4.755397 -13.362191
LeftToeBase 14.781357 -0.000000 -0.000000
RightUpLeg -15.312245 -10.909835 -8.052428
RightLeg 76.349011 -0.000000 -0.000000
RightFoot -5.193347 -3.990826 10.710606
RightToeBase 0.899899 -0.000000 -0.000000
294
root 4.522050 36.632436 0.871722 -0.177800 0.146985 1.125239
Spine 4.401664 9.498344 -7.596614
Head 10.149791 -6.284481 6.423988
LeftShoulder -7.438847 -8.603145 10.312108
LeftArm -11.340988 -31.753181 -38.722176
LeftForeArm 2.684023 -0.000000 97.417249
LeftHand -17.372373 -0.000000 26.919236
LeftHandThumb1 -26.253704 0.000000 33.147579
RightShoulder -10.452734 -19.133548 2.312084
RightArm 22.218029 -27.186293 58.602616
RightForeArm 176.557328 -0.000000 34.524057
RightHand 1.658038 -0.000000 -0.771270
RightHandThumb1 -24.326973 -0.000000 -32.862282
LeftUpLeg 0.140151 3.920840 -5.680652
LeftLeg 9.016631 -0.000000 -0.000000
LeftFoot -19.303668 4.793477 -13.355519
LeftToeBase 14.725749 -0.000000 -0.000000
RightUpLeg -15.297881 -10.866679 -8.056463
RightLeg 76.294290 -0.000000 -0.000000
RightFoot -5.166539 -4.011552 10.663027
RightToeBase 0.795831 -0.000000 -0.000000
